<svg id="Layer_1" enable-background="new 0 0 464.004 464.004" height="512" viewBox="0 0 464.004 464.004" width="512" xmlns="http://www.w3.org/2000/svg"><path d="m213.425 72.68c-.961-.2-1.931-.367-2.899-.536.969.165 1.936.34 2.899.536z" fill="#e84857"/><path d="m388.583 148.941c-.07 12.4-9.06 22.98-21.18 25.63-9.44 2.07-21.1 4.58-32.94 7.11 34.797 75.222 21.877 158.907-28.63 221.57l-.16-.12c-12.232 19.204-47.908 61.29-90.96 60.87-74.53-.73-116.13-105.36-123.59-124.12-5.81-14.62-9.48-29.43-11.75-41.19-6.832-35.28-5.783-66.531 10.92-99.57-5.53-30.97.45-63.5 20.73-88.37v-69.9c0-17.789 21.549-26.492 33.97-14.07 3.6 3.6 5.83 8.58 5.83 14.07 0 40.555-.04 39.51.01 39.61 12.77-5.76 25.88-8.93 38.74-9.57v-52.04c0-16.847 20.426-25.094 32.19-13.33 3.41 3.41 5.52 8.12 5.52 13.33v57.9c20.28 7.76 38.1 23.05 50.5 45.8h84.54c14.54 0 26.33 11.82 26.26 26.39z" fill="#e84857"/><path d="m388.583 148.941c-.07 12.4-9.06 22.98-21.18 25.63-26.66 5.846-87.729 18.772-93.52 19.97-22.29 4.71-38.35 24.37-38.35 47.32 0 19.96 12.32 37.99 31.16 45.16 48.081 18.279 66.978 77.435 36.26 120.11-20.84 28.74-52.34 57.22-88.24 56.87-74.53-.73-116.13-105.36-123.59-124.12-7.455-18.759-12.499-40.984-14.67-60.04-10.092-87.35 57.039-157.29 138.26-157.29h147.61c14.54 0 26.33 11.82 26.26 26.39z" fill="#fe4f60"/><path d="m386.607 138.869c4.649 11.297-3.827 23.682-16.042 23.682h-115.852c-78.933 0-140.88 65.478-139.284 140.845.438 20.691-29.161 24.492-34.059 4.384-2.772-11.378-4.616-22.408-5.397-32.679-6.444-87.948 60.888-152.55 138.74-152.55h147.61c11.51 0 20.479 7.072 24.284 16.318z" fill="#ff6d7a"/><path d="m321.203 156.541c-3.38 0-6.52-2.15-7.61-5.54-3.902-12.01-11.521-21.351-21.64-28.45h23.69c5.957 6.971 10.422 14.976 13.17 23.53 1.672 5.161-2.196 10.46-7.61 10.46z" fill="#e84857"/><path d="m182.663 295.461c-1.1-4.27-5.46-6.85-9.75-5.75-32.697 8.423-65.968 5.069-96.46-9.87.701 6.154 1.745 12.783 2.92 18.85 12.923 5.292 27.543 9.3 43.728 10.849 12.051 3.739 19.916 14.097 18.707 26.973-.414 4.399 2.818 8.3 7.217 8.713 4.397.414 8.3-2.817 8.713-7.217.933-9.932-1.553-20.006-7.716-28.288 8.992-.726 17.979-2.22 26.892-4.51 4.269-1.1 6.849-5.47 5.749-9.75z" fill="#e84857"/><path d="m339.665 193.897c3.404 8.738-1.814 18.452-10.986 20.404-20.326 4.324-36.942 7.826-37.795 8-9.877 2.087-18.373 7.038-24.84 13.774-12.264 12.774-32.981-1.704-24.638-17.323 6.255-11.71 17.361-21.016 32.478-24.211 1.16-.24 31.44-6.62 60.58-12.86 1.646 3.559 3.419 7.644 5.201 12.216z" fill="#cc3f4c"/><g fill="#fe4f60"><path d="m178.866 72.011c-18.772 2.968-37.967 11.326-53.842 24.608v-41.768c0-7.586 4.176-13.94 10.092-17.314 7.819-4.46 5.258-17.374-5.765-16.525-10.429.802-18.327 9.813-18.327 20.272v69.467c-20.309 24.9-26.254 57.441-20.73 88.37 5.83-11.53 13.21-22.15 21.88-31.57 9.825-36.12 38.987-62.241 72.24-72.245 14.302-4.303 9.204-25.628-5.548-23.295z"/><path d="m193.856 6.776c7.404-8.732 20.591 1.938 14.067 11.346-2.111 3.043-3.349 6.739-3.349 10.729v42.48c-4.98-.52-10-.64-15-.38v-52.1c-.001-4.896 1.656-8.978 4.282-12.075z"/></g></svg>