<svg id="Layer_3" enable-background="new 0 0 64 64" height="512" viewBox="0 0 64 64" width="512" xmlns="http://www.w3.org/2000/svg"><path d="m2 2h60v50h-60z" fill="#96c5da"/><path d="m6 22 2-2h2l2 2h2l2 2v2l-2 2h-2l-2-2h-2l-2-2z" fill="#c8af8f"/><path d="m23 2-5 5h-4l-2 2h-2l-2 2h-6v-9z" fill="#c8af8f"/><path d="m62 10h-8l-2 2h-2l-2 2h-4l-4-4v-2l-6-6h28z" fill="#d9de6d"/><path d="m2 44h8l2-2h2l2-2h4l4 4v2l6 6h-28z" fill="#d9de6d"/><path d="m42 20c12.911 0 20.486 14.229 13.099 24.604l-13.099 17.396-13.099-17.396c-7.387-10.375.188-24.604 13.099-24.604z" fill="#e0747c"/><path d="m26.464 32c1.203-4.816 4.699-9.002 9.609-10.905l.011-.012-1.084-1.083h-4l-2 2h-2l-2-2h-2l-2 2 2 2v2l2 2v4z" fill="#d9de6d"/><path d="m56.097 43c-.298.542-.624 1.079-.997 1.604l-5.57 7.396h12.47v-9z" fill="#c8af8f"/><circle cx="42" cy="36" fill="#baae9b" r="10"/><ellipse cx="40.5" cy="36" fill="#f8e8ce" rx="8.5" ry="9.875"/><path d="m62 53h-12.47v-2h11.47v-48h-58v48h31.47v2h-32.47c-.552 0-1-.448-1-1v-50c0-.552.448-1 1-1h60c.552 0 1 .448 1 1v50c0 .552-.448 1-1 1z"/><path d="m48 15h-4c-.265 0-.52-.105-.707-.293l-4-4c-.188-.187-.293-.442-.293-.707v-1.586l-5.707-5.707 1.414-1.414 6 6c.188.187.293.442.293.707v1.586l3.414 3.414h3.172l1.707-1.707c.187-.188.442-.293.707-.293h1.586l1.707-1.707c.187-.188.442-.293.707-.293h8v2h-7.586l-1.707 1.707c-.187.188-.442.293-.707.293h-1.586l-1.707 1.707c-.187.188-.442.293-.707.293z"/><path d="m29.293 52.707-6-6c-.188-.187-.293-.442-.293-.707v-1.586l-3.414-3.414h-3.172l-1.707 1.707c-.187.188-.442.293-.707.293h-1.586l-1.707 1.707c-.187.188-.442.293-.707.293h-8v-2h7.586l1.707-1.707c.187-.188.442-.293.707-.293h1.586l1.707-1.707c.187-.188.442-.293.707-.293h4c.265 0 .52.105.707.293l4 4c.188.187.293.442.293.707v1.586l5.707 5.707z"/><path d="m8 12h-6v-2h5.586l1.707-1.707c.187-.188.442-.293.707-.293h1.586l1.707-1.707c.187-.188.442-.293.707-.293h3.586l4.707-4.707 1.414 1.414-5 5c-.187.188-.442.293-.707.293h-3.586l-1.707 1.707c-.187.188-.442.293-.707.293h-1.586l-1.707 1.707c-.187.188-.442.293-.707.293z"/><path d="m56 42h6v2h-6z"/><path d="m26.5 33h-1.5c-.552 0-1-.448-1-1v-3.586l-1.707-1.707c-.188-.187-.293-.442-.293-.707v-1.586l-1.707-1.707c-.391-.391-.391-1.023 0-1.414l2-2c.187-.188.442-.293.707-.293h2c.265 0 .52.105.707.293l1.707 1.707h1.172l1.707-1.707c.187-.188.442-.293.707-.293h4c.265 0 .52.105.707.293l1.083 1.083-1.414 1.414-.79-.79h-3.172l-1.707 1.707c-.187.188-.442.293-.707.293h-2c-.265 0-.52-.105-.707-.293l-1.707-1.707h-1.172l-1 1 1.293 1.293c.188.187.293.442.293.707v1.586l1.707 1.707c.188.187.293.442.293.707v3h.5z"/><path d="m14 29h-2c-.265 0-.52-.105-.707-.293l-1.707-1.707h-1.586c-.265 0-.52-.105-.707-.293l-2-2c-.188-.187-.293-.442-.293-.707v-2c0-.265.105-.52.293-.707l2-2c.187-.188.442-.293.707-.293h2c.265 0 .52.105.707.293l1.707 1.707h1.586c.265 0 .52.105.707.293l2 2c.188.187.293.442.293.707v2c0 .265-.105.52-.293.707l-2 2c-.187.188-.442.293-.707.293zm-1.586-2h1.172l1.414-1.414v-1.172l-1.414-1.414h-1.586c-.265 0-.52-.105-.707-.293l-1.707-1.707h-1.172l-1.414 1.414v1.172l1.414 1.414h1.586c.265 0 .52.105.707.293z"/><path d="m42 63c-.314 0-.61-.147-.799-.398l-13.099-17.396c-3.655-5.133-4.117-11.505-1.25-17.066 2.907-5.638 8.711-9.14 15.148-9.14s12.241 3.502 15.147 9.14c2.867 5.561 2.406 11.933-1.234 17.044l-13.114 17.418c-.189.251-.485.398-.799.398zm0-42c-5.771 0-10.77 3.012-13.37 8.056-2.517 4.882-2.111 10.478 1.085 14.968l12.285 16.313 12.3-16.335c3.181-4.468 3.587-10.064 1.07-14.946-2.6-5.044-7.599-8.056-13.37-8.056z"/><path d="m42 47c-6.065 0-11-4.935-11-11s4.935-11 11-11 11 4.935 11 11-4.935 11-11 11zm0-20c-4.962 0-9 4.038-9 9s4.038 9 9 9 9-4.038 9-9-4.038-9-9-9z"/></svg>